<svg id="Layer_1" data-name="Layer 1" xmlns="http://www.w3.org/2000/svg" xmlns:xlink="http://www.w3.org/1999/xlink" viewBox="0 0 846.41 846.04"><defs><style>.cls-1{fill:none;}.cls-2{fill:#f5f5f5;}.cls-3{fill:#ac693e;}.cls-4{fill:#603c24;}.cls-5{fill:#835031;}.cls-6{fill:url(#l_linearGradient7154);}.cls-7{fill:url(#l_linearGradient6961);}.cls-8{fill:#7b4929;}.cls-9{fill:#ae8b74;}.cls-10{fill:url(#l_linearGradient7236);}.cls-11{fill:url(#l_linearGradient7160);}.cls-12{fill:url(#l_linearGradient7205-7);}.cls-13{fill:url(#l_linearGradient7089);}.cls-14{fill:url(#l_linearGradient7131);}.cls-15{fill:url(#l_linearGradient7052-6-0);}.cls-16{fill:#804726;}.cls-17{fill:#7d4525;}</style><linearGradient id="l_linearGradient7154" x1="434.38" y1="466.88" x2="218.38" y2="558.17" gradientUnits="userSpaceOnUse"><stop offset="0" stop-color="#d59063"/><stop offset="1" stop-color="#8e4e28"/></linearGradient><linearGradient id="l_linearGradient6961" x1="650.38" y1="342.17" x2="434.38" y2="682.88" gradientUnits="userSpaceOnUse"><stop offset="0" stop-color="#b86e42"/><stop offset="1" stop-color="#e19563"/></linearGradient><linearGradient id="l_linearGradient7236" x1="294.46" y1="386.28" x2="350" y2="497.2" gradientUnits="userSpaceOnUse"><stop offset="0" stop-color="#9f5f37"/><stop offset="1" stop-color="#ad693f"/></linearGradient><linearGradient id="l_linearGradient7160" x1="228.54" y1="458.4" x2="282.09" y2="376.77" gradientUnits="userSpaceOnUse"><stop offset="0" stop-color="#eaad87"/><stop offset="1" stop-color="#c76e38"/></linearGradient><linearGradient id="l_linearGradient7205-7" x1="602.8" y1="385.37" x2="495.14" y2="487.6" gradientUnits="userSpaceOnUse"><stop offset="0" stop-color="#c17649"/><stop offset="1" stop-color="#a6683e"/></linearGradient><linearGradient id="l_linearGradient7089" x1="612.99" y1="427.43" x2="583.24" y2="380.17" gradientUnits="userSpaceOnUse"><stop offset="0" stop-color="#db9161"/><stop offset="1" stop-color="#744421"/></linearGradient><linearGradient id="l_linearGradient7131" x1="584.35" y1="198.7" x2="538.59" y2="273.59" gradientUnits="userSpaceOnUse"><stop offset="0" stop-color="#eaa072"/><stop offset="1" stop-color="#a15e35"/></linearGradient><linearGradient id="l_linearGradient7052-6-0" x1="279.16" y1="206.26" x2="327.07" y2="272.98" gradientUnits="userSpaceOnUse"><stop offset="0" stop-color="#ecaa81"/><stop offset="1" stop-color="#b2683b"/></linearGradient></defs><rect class="cls-1" width="846.41" height="846.04"/><polygon class="cls-2" points="434.38 682.88 363.88 682.03 132.22 548.28 292.19 455.92 434.38 682.88"/><polygon class="cls-3" points="428.57 206.15 218.38 342.18 434.38 466.88 650.38 342.18 428.57 206.15"/><polygon class="cls-4" points="428.57 206.15 433.08 466.13 434.38 466.88 650.38 342.18 428.57 206.15"/><polygon class="cls-5" points="428.57 206.15 398.22 446 434.38 466.88 485.13 437.58 428.57 206.15"/><polygon class="cls-6" points="218.38 342.17 434.38 466.88 434.38 682.88 218.38 558.17 218.38 342.17"/><polygon class="cls-7" points="650.38 342.17 434.38 466.88 434.38 682.88 650.38 558.17 650.38 342.17"/><polygon class="cls-8" points="428.57 206.15 433.08 466.13 434.38 466.88 650.38 342.18 428.57 206.15"/><polygon class="cls-9" points="309.88 395 309.88 522.19 318.13 513.16 326.38 531.71 334.63 522.69 342.88 541.24 342.88 414.05 309.88 395"/><polygon class="cls-10" points="218.38 342.18 218.38 431.32 309.88 484.15 433.08 466.13 218.38 342.18"/><polygon class="cls-11" points="95.18 342.18 309.88 466.13 433.08 466.13 218.38 342.18 95.18 342.18"/><polygon class="cls-12" points="650.38 342.18 434.38 466.88 531.88 487.03 650.38 418.61 650.38 342.18"/><polygon class="cls-13" points="762.55 341.85 650.38 342.18 434.38 466.88 531.88 475.03 762.55 341.85"/><polygon class="cls-14" points="470.96 132.73 428.57 206.15 650.38 342.18 696.22 262.78 470.96 132.73"/><polygon class="cls-15" points="390.29 139.83 165.74 269.48 218.38 342.18 428.57 206.15 390.29 139.83"/><polygon class="cls-16" points="445.4 622.5 448.27 620.9 448.27 654.37 445.4 655.97 445.4 622.5"/><polygon class="cls-16" points="448.99 620.5 451.86 618.9 451.86 652.37 448.99 653.97 448.99 620.5"/><polygon class="cls-16" points="452.58 618.5 454.02 617.69 454.02 641.17 452.58 641.97 452.58 618.5"/><polygon class="cls-16" points="454.74 617.29 456.17 616.49 456.17 639.97 454.74 640.77 454.74 617.29"/><polygon class="cls-16" points="456.53 616.29 459.4 614.69 459.4 648.16 456.53 649.76 456.53 616.29"/><polygon class="cls-16" points="460.12 614.29 461.56 613.49 461.56 636.97 460.12 637.77 460.12 614.29"/><polygon class="cls-16" points="462.27 613.08 463.71 612.28 463.71 635.76 462.27 636.56 462.27 613.08"/><polygon class="cls-16" points="464.43 611.88 465.87 611.08 465.87 634.56 464.43 635.36 464.43 611.88"/><polygon class="cls-16" points="466.58 610.68 468.02 609.88 468.02 633.36 466.58 634.16 466.58 610.68"/><polygon class="cls-16" points="468.74 609.48 470.18 608.68 470.18 632.15 468.74 632.96 468.74 609.48"/><polygon class="cls-16" points="470.89 608.27 472.33 607.47 472.33 630.95 470.89 631.75 470.89 608.27"/><polygon class="cls-16" points="473.05 607.07 474.48 606.27 474.48 629.75 473.05 630.55 473.05 607.07"/><polygon class="cls-16" points="475.2 605.87 478.07 604.27 478.07 637.74 475.2 639.34 475.2 605.87"/><polygon class="cls-16" points="478.79 603.87 481.67 602.26 481.67 635.73 478.79 637.34 478.79 603.87"/><polygon class="cls-16" points="482.38 601.86 483.82 601.06 483.82 624.54 482.38 625.34 482.38 601.86"/><polygon class="cls-16" points="484.54 600.66 485.97 599.86 485.97 623.34 484.54 624.14 484.54 600.66"/><polygon class="cls-16" points="486.69 599.46 488.13 598.66 488.13 622.14 486.69 622.94 486.69 599.46"/><polygon class="cls-16" points="488.85 598.25 490.28 597.45 490.28 620.93 488.85 621.74 488.85 598.25"/><polygon class="cls-16" points="491 597.05 492.44 596.25 492.44 619.73 491 620.53 491 597.05"/><polygon class="cls-16" points="493.15 595.85 494.59 595.05 494.59 618.53 493.15 619.33 493.15 595.85"/><polygon class="cls-16" points="495.31 594.65 496.75 593.85 496.75 617.33 495.31 618.13 495.31 594.65"/><polygon class="cls-16" points="497.46 593.45 500.34 591.84 500.34 625.31 497.46 626.92 497.46 593.45"/><polygon class="cls-16" points="501.06 591.44 502.49 590.64 502.49 614.12 501.06 614.92 501.06 591.44"/><polygon class="cls-16" points="503.21 590.24 504.65 589.44 504.65 612.92 503.21 613.72 503.21 590.24"/><polygon class="cls-16" points="505.36 589.04 508.24 587.43 508.24 620.9 505.36 622.51 505.36 589.04"/><polygon class="cls-16" points="508.95 587.03 511.83 585.43 511.83 618.9 508.95 620.5 508.95 587.03"/><path class="cls-16" d="M455.22,653.73v-.81a.92.92,0,0,0,.49,0,1.18,1.18,0,0,0,.48-.18c.63-.36.63-.36,1-1.13a3.77,3.77,0,0,0,.39-2,2.27,2.27,0,0,1-.47.84,1.4,1.4,0,0,1-.62.55c-.71.39-.71.39-1.12,0s-.41-.37-.41-1.4a2.75,2.75,0,0,1,.43-1.86c.43-.85.43-.85,1.14-1.25s.82-.45,1.25.18.43.63.43,2.29a4.64,4.64,0,0,1-.53,2.77c-.53,1.22-.53,1.22-1.42,1.72a1.58,1.58,0,0,1-.49.2A1.65,1.65,0,0,1,455.22,653.73Zm1.27-3.49c.43-.24.43-.24.68-.78a2,2,0,0,0,.25-1.26c0-.71,0-.71-.25-1s-.25-.27-.68,0-.43.24-.68.79a2,2,0,0,0-.25,1.25c0,.72,0,.72.25,1S456.06,650.48,456.49,650.24Z" transform="translate(-2.62 -2.97)"/><path class="cls-16" d="M463.45,649.14v-.81a1.17,1.17,0,0,0,.49,0,1.07,1.07,0,0,0,.48-.19c.63-.35.63-.35,1-1.12a3.77,3.77,0,0,0,.39-2,2.27,2.27,0,0,1-.47.84,1.4,1.4,0,0,1-.62.55c-.71.39-.71.39-1.12,0s-.41-.37-.41-1.4a2.75,2.75,0,0,1,.43-1.86c.43-.85.43-.85,1.14-1.25s.82-.46,1.25.18.43.63.43,2.29a4.64,4.64,0,0,1-.53,2.77c-.53,1.22-.53,1.22-1.42,1.71a1.4,1.4,0,0,1-.49.21A1.65,1.65,0,0,1,463.45,649.14Zm1.27-3.49c.43-.24.43-.24.68-.79a2,2,0,0,0,.25-1.26c0-.7,0-.7-.25-1s-.25-.28-.68,0-.43.24-.68.8a2,2,0,0,0-.25,1.25c0,.71,0,.71.25,1S464.29,645.89,464.72,645.65Z" transform="translate(-2.62 -2.97)"/><path class="cls-16" d="M467.57,646.84V646a.88.88,0,0,0,.48,0,1.17,1.17,0,0,0,.49-.18c.63-.36.63-.36,1-1.13a3.88,3.88,0,0,0,.38-2,2.13,2.13,0,0,1-.46.84,1.4,1.4,0,0,1-.62.55c-.71.39-.71.39-1.12,0s-.41-.37-.41-1.4a2.81,2.81,0,0,1,.42-1.86c.43-.85.43-.85,1.15-1.25s.81-.45,1.24.18.44.63.44,2.29a4.64,4.64,0,0,1-.53,2.77c-.53,1.22-.53,1.22-1.42,1.72a1.58,1.58,0,0,1-.49.2A1.76,1.76,0,0,1,467.57,646.84Zm1.27-3.49c.43-.24.43-.24.68-.78a2,2,0,0,0,.25-1.26c0-.71,0-.71-.25-1s-.25-.27-.68,0-.43.24-.68.79a2,2,0,0,0-.25,1.25c0,.72,0,.72.25,1S468.41,643.59,468.84,643.35Z" transform="translate(-2.62 -2.97)"/><path class="cls-16" d="M471.68,644.54v-.8a1.17,1.17,0,0,0,.49,0,1.24,1.24,0,0,0,.48-.19c.63-.35.63-.35,1-1.13a3.75,3.75,0,0,0,.39-2,2.15,2.15,0,0,1-.47.83,1.4,1.4,0,0,1-.62.55c-.71.4-.71.4-1.12,0s-.41-.37-.41-1.4a2.75,2.75,0,0,1,.43-1.86c.43-.85.43-.85,1.14-1.25s.82-.46,1.25.18.43.62.43,2.28a4.69,4.69,0,0,1-.53,2.78c-.53,1.21-.53,1.21-1.42,1.71a1.91,1.91,0,0,1-.49.21A1.4,1.4,0,0,1,471.68,644.54Zm1.27-3.48c.43-.24.43-.24.68-.79a2,2,0,0,0,.25-1.26c0-.71,0-.71-.25-1s-.25-.27-.68,0-.43.24-.68.79a2,2,0,0,0-.25,1.26c0,.71,0,.71.25,1S472.52,641.3,473,641.06Z" transform="translate(-2.62 -2.97)"/><path class="cls-16" d="M486.09,636.51v-.81a1.12,1.12,0,0,0,.48,0,1.35,1.35,0,0,0,.49-.19c.63-.35.63-.35,1-1.12a3.88,3.88,0,0,0,.38-2,2.13,2.13,0,0,1-.46.84,1.4,1.4,0,0,1-.63.54c-.7.4-.7.4-1.12,0s-.41-.37-.41-1.4a2.75,2.75,0,0,1,.43-1.86c.43-.85.43-.85,1.15-1.25s.81-.46,1.24.18.43.63.43,2.29a4.64,4.64,0,0,1-.53,2.77c-.52,1.21-.52,1.21-1.42,1.71a1.44,1.44,0,0,1-.48.21A1.76,1.76,0,0,1,486.09,636.51Zm1.27-3.49c.42-.24.42-.24.67-.79a2,2,0,0,0,.26-1.26c0-.71,0-.71-.26-1s-.25-.28-.67,0-.43.24-.69.8a2,2,0,0,0-.25,1.25c0,.71,0,.71.25,1S486.93,633.26,487.36,633Z" transform="translate(-2.62 -2.97)"/><path class="cls-16" d="M490.2,634.21v-.81a1.17,1.17,0,0,0,.49,0,1.07,1.07,0,0,0,.48-.19c.63-.35.63-.35,1-1.12a3.77,3.77,0,0,0,.39-2,2.27,2.27,0,0,1-.47.84,1.4,1.4,0,0,1-.62.55c-.71.39-.71.39-1.12,0s-.41-.37-.41-1.4a2.75,2.75,0,0,1,.43-1.86c.43-.85.43-.85,1.14-1.25s.82-.45,1.25.18.43.63.43,2.29a4.64,4.64,0,0,1-.53,2.77c-.53,1.22-.53,1.22-1.42,1.72a1.58,1.58,0,0,1-.49.2A1.65,1.65,0,0,1,490.2,634.21Zm1.27-3.49c.43-.24.43-.24.68-.79a2,2,0,0,0,.25-1.26c0-.7,0-.7-.25-1s-.25-.27-.68,0-.43.23-.68.79a2,2,0,0,0-.25,1.25c0,.71,0,.71.25,1S491,631,491.47,630.72Z" transform="translate(-2.62 -2.97)"/><path class="cls-16" d="M494.32,631.91v-.81a.88.88,0,0,0,.48,0,1.17,1.17,0,0,0,.49-.18c.63-.35.63-.35,1-1.13a3.88,3.88,0,0,0,.38-2,2.13,2.13,0,0,1-.46.84,1.4,1.4,0,0,1-.62.55c-.71.4-.71.4-1.13,0s-.41-.36-.41-1.4a2.75,2.75,0,0,1,.43-1.86c.43-.85.43-.85,1.15-1.24s.81-.46,1.24.17.44.63.44,2.29a4.57,4.57,0,0,1-.54,2.77c-.52,1.22-.52,1.22-1.42,1.72a1.64,1.64,0,0,1-.48.2A1.28,1.28,0,0,1,494.32,631.91Zm1.27-3.49c.43-.23.43-.23.67-.78a2,2,0,0,0,.26-1.26c0-.71,0-.71-.26-1s-.24-.27-.67,0-.43.24-.69.79a2.11,2.11,0,0,0-.24,1.26c0,.71,0,.71.24,1S495.16,628.66,495.59,628.42Z" transform="translate(-2.62 -2.97)"/><path class="cls-16" d="M504.61,626.17v-.81a.88.88,0,0,0,.48,0,1.08,1.08,0,0,0,.48-.18c.64-.36.64-.36,1-1.13a3.88,3.88,0,0,0,.38-2,2.13,2.13,0,0,1-.46.84,1.47,1.47,0,0,1-.63.55c-.7.39-.7.39-1.12,0s-.41-.37-.41-1.4a2.75,2.75,0,0,1,.43-1.86c.43-.85.43-.85,1.14-1.25s.82-.45,1.25.18.43.63.43,2.29a4.64,4.64,0,0,1-.53,2.77c-.52,1.22-.52,1.22-1.42,1.72a1.64,1.64,0,0,1-.48.2A1.76,1.76,0,0,1,504.61,626.17Zm1.26-3.49c.43-.24.43-.24.68-.78a2,2,0,0,0,.26-1.26c0-.71,0-.71-.26-1s-.25-.27-.68,0-.42.24-.68.79a2,2,0,0,0-.25,1.25c0,.72,0,.72.25,1S505.45,622.92,505.87,622.68Z" transform="translate(-2.62 -2.97)"/><polygon class="cls-17" points="618.42 557.31 641.14 544.19 641.14 549.02 618.42 562.14 618.42 557.31"/><polygon class="cls-17" points="624.66 527.89 622.1 533.8 619.53 539.72 622.24 538.16 622.24 554.14 627.08 551.34 627.08 535.37 629.78 533.8 627.22 530.85 624.66 527.89"/><polygon class="cls-17" points="634.91 522.21 632.35 528.13 629.78 534.05 632.49 532.48 632.49 548.46 637.33 545.67 637.33 529.69 640.03 528.13 637.47 525.17 634.91 522.21"/><path class="cls-17" d="M598.18,540.55a2.62,2.62,0,0,0-1.37,1.82.48.48,0,0,0,.54.51c-8.86,5.64-16.1,17.53-16.41,21.11,0,0,3-3.9,4.45-4.72s4.17-.18,4.17-.18,3-3.9,4.44-4.72a6,6,0,0,1,3.43-.31v15.73a5.18,5.18,0,0,1-2,3.48,1.15,1.15,0,0,1-1.48-.11,2.77,2.77,0,0,1-.61-2,5,5,0,0,1,0-.76,5.14,5.14,0,0,0-1.29,2.95,1.31,1.31,0,0,0,1,1.42,3.55,3.55,0,0,0,2.47-.59,8,8,0,0,0,2.46-2.26,4.75,4.75,0,0,0,1-2.6,1.72,1.72,0,0,0-.16-.74v-15c1-1.19,2.71-3.55,3.69-4.11,1.44-.82,4.17-.18,4.17-.18s3-3.9,4.45-4.72a14.6,14.6,0,0,1,4-1.24c-1.18-3.17-7.87-5.88-16.2-1.44a1.86,1.86,0,0,0,.52-1.1C599.55,540.22,598.94,540.12,598.18,540.55Zm17.05,2.78a2.8,2.8,0,0,1,.19,1v-1.09h0v0h0Z" transform="translate(-2.62 -2.97)"/></svg>